# xmcd
#
# Track frame offsets: 
#        150
#        12937
#        24112
#        34625
#        45252
#        59120
#        69975
#        83572
#        95617
#        107600
#        120885
#        133642
#        148302
#        160662
#        174005
#
# Disc length: 2546 seconds
#
# Revision: 3
# Processed by: cddbd v1.5.2PL0 Copyright (c) Steve Scherf et al.
# Submitted via: ExactAudioCopy v0.99pb5
#
DISCID=af09f00f
DTITLE=Various Artist - Classic Country Vol. 14 1969-1975 Disc 1
DYEAR=1999
DGENRE=Country
TTITLE0=Jerry Lee Lewis - Chantilly Lace
TTITLE1=Freddie Hart - Easy Loving
TTITLE2=David Houston - Baby Baby (I Know You're A Lady)
TTITLE3=Charley Pride - I'm Just Me
TTITLE4=George Jones - A Good Year For The Roses
TTITLE5=Tanya Tucker - Would You Lay With Me (In A Field Of Stone)
TTITLE6=Faron Young - It's Four In The Morning
TTITLE7=Statler Brothers - The Class Of '57
TTITLE8=Loretta Lynn - One's On The Way
TTITLE9=Conway Twitty - How Much More Can She Stand
TTITLE10=Don Williams - You're My Best Friend
TTITLE11=Melba Montgomery - No Charge
TTITLE12=Hank Williams Jr. - Eleven Roses
TTITLE13=Waylon Jennings - Are You Sure Hank Done It This Way
TTITLE14=Johnny Cash - A Boy Named Sue
EXTD=
EXTT0=
EXTT1=
EXTT2=
EXTT3=
EXTT4=
EXTT5=
EXTT6=
EXTT7=
EXTT8=
EXTT9=
EXTT10=
EXTT11=
EXTT12=
EXTT13=
EXTT14=
PLAYORDER=
